name C:/MyDriveSym/Projects/mobilecap/Data\Session20210827_0002\mocap\ForceDataProcessed\walkingTS3_forces.mot
datacolumns 19
datarows 29
range 0.00000000 0.01400000
endheader 
time	R_ground_force_vx	R_ground_force_vy	R_ground_force_vz	R_ground_force_px	R_ground_force_py	R_ground_force_pz	R_ground_torque_x	R_ground_torque_y	R_ground_torque_z	L_ground_force_vx	L_ground_force_vy	L_ground_force_vz	L_ground_force_px	L_ground_force_py	L_ground_force_pz	L_ground_torque_x	L_ground_torque_y	L_ground_torque_z	
          0.00000000	         -6.25595000	         69.41564400	          9.31652400	          0.10057100	          0.00600000	         -0.19840200	          0.00000000	          0.35279100	          0.00000000	          0.00000000	          0.00000000	          0.00000000	          0.67336700	          0.00000000	         -0.31384100	          0.00000000	          0.00000000	          0.00000000	
          0.00050000	         -6.47098200	         70.72200600	          9.39032000	          0.10057100	          0.00600000	         -0.19840200	          0.00000000	          0.35012000	          0.00000000	          0.00000000	          0.00000000	          0.00000000	          0.67336700	          0.00000000	         -0.31384100	          0.00000000	          0.00000000	          0.00000000	
          0.00100000	         -6.68898500	         72.04047600	          9.46394300	          0.10057100	          0.00600000	         -0.19840200	          0.00000000	          0.34746000	          0.00000000	          0.00000000	          0.00000000	          0.00000000	          0.67336700	          0.00000000	         -0.31384100	          0.00000000	          0.00000000	          0.00000000	
          0.00150000	         -6.90997600	         73.37106000	          9.53737900	          0.10057100	          0.00600000	         -0.19840200	          0.00000000	          0.34480900	          0.00000000	          0.00000000	          0.00000000	          0.00000000	          0.67336700	          0.00000000	         -0.31384100	          0.00000000	          0.00000000	          0.00000000	
          0.00200000	         -7.13397500	         74.71376400	          9.61061200	          0.10101700	          0.00600000	         -0.19845400	          0.00000000	          0.34216700	          0.00000000	          0.00000000	          0.00000000	          0.00000000	          0.67336700	          0.00000000	         -0.31384100	          0.00000000	          0.00000000	          0.00000000	
          0.00250000	         -7.36099900	         76.06858900	          9.68362700	          0.10145700	          0.00600000	         -0.19850400	          0.00000000	          0.33953300	          0.00000000	          0.00000000	          0.00000000	          0.00000000	          0.67336700	          0.00000000	         -0.31384100	          0.00000000	          0.00000000	          0.00000000	
          0.00300000	         -7.59106700	         77.43553900	          9.75640800	          0.10189100	          0.00600000	         -0.19855200	          0.00000000	          0.33690600	          0.00000000	          0.00000000	          0.00000000	          0.00000000	          0.67336700	          0.00000000	         -0.31384100	          0.00000000	          0.00000000	          0.00000000	
          0.00350000	         -7.82419600	         78.81461200	          9.82893900	          0.10231800	          0.00600000	         -0.19859900	          0.00000000	          0.33428400	          0.00000000	          0.00000000	          0.00000000	          0.00000000	          0.67336700	          0.00000000	         -0.31384100	          0.00000000	          0.00000000	          0.00000000	
          0.00400000	         -8.06040500	         80.20580500	          9.90120600	          0.10273900	          0.00600000	         -0.19864400	          0.00000000	          0.33166700	          0.00000000	          0.00000000	          0.00000000	          0.00000000	          0.67336700	          0.00000000	         -0.31384100	          0.00000000	          0.00000000	          0.00000000	
          0.00450000	         -8.29971000	         81.60911400	          9.97319000	          0.10315500	          0.00600000	         -0.19868800	          0.00000000	          0.32905400	          0.00000000	          0.00000000	          0.00000000	          0.00000000	          0.67336700	          0.00000000	         -0.31384100	          0.00000000	          0.00000000	          0.00000000	
          0.00500000	         -8.54212900	         83.02453300	         10.04487600	          0.10356400	          0.00600000	         -0.19873100	          0.00000000	          0.32644400	          0.00000000	          0.00000000	          0.00000000	          0.00000000	          0.67336700	          0.00000000	         -0.31384100	          0.00000000	          0.00000000	          0.00000000	
          0.00550000	         -8.78767900	         84.45205100	         10.11624800	          0.10396900	          0.00600000	         -0.19877200	          0.00000000	          0.32383700	          0.00000000	          0.00000000	          0.00000000	          0.00000000	          0.67336700	          0.00000000	         -0.31384100	          0.00000000	          0.00000000	          0.00000000	
          0.00600000	         -9.03637700	         85.89166000	         10.18728700	          0.10436800	          0.00600000	         -0.19881100	          0.00000000	          0.32123000	          0.00000000	          0.00000000	          0.00000000	          0.00000000	          0.67336700	          0.00000000	         -0.31384100	          0.00000000	          0.00000000	          0.00000000	
          0.00650000	         -9.28824100	         87.34334400	         10.25797700	          0.10476200	          0.00600000	         -0.19885000	          0.00000000	          0.31862500	          0.00000000	          0.00000000	          0.00000000	          0.00000000	          0.67336700	          0.00000000	         -0.31384100	          0.00000000	          0.00000000	          0.00000000	
          0.00700000	         -9.54328500	         88.80709000	         10.32830000	          0.10515100	          0.00600000	         -0.19888700	          0.00000000	          0.31602000	          0.00000000	          0.00000000	          0.00000000	          0.00000000	          0.67336700	          0.00000000	         -0.31384100	          0.00000000	          0.00000000	          0.00000000	
          0.00750000	         -9.80152800	         90.28288000	         10.39823800	          0.10553500	          0.00600000	         -0.19892300	          0.00000000	          0.31341500	          0.00000000	          0.00000000	          0.00000000	          0.00000000	          0.67336700	          0.00000000	         -0.31384100	          0.00000000	          0.00000000	          0.00000000	
          0.00800000	        -10.06298400	         91.77069400	         10.46777400	          0.10591400	          0.00600000	         -0.19895700	          0.00000000	          0.31080800	          0.00000000	          0.00000000	          0.00000000	          0.00000000	          0.67336700	          0.00000000	         -0.31384100	          0.00000000	          0.00000000	          0.00000000	
          0.00850000	        -10.32767000	         93.27051000	         10.53688900	          0.10629000	          0.00600000	         -0.19899100	          0.00000000	          0.30820000	          0.00000000	          0.00000000	          0.00000000	          0.00000000	          0.67336700	          0.00000000	         -0.31384100	          0.00000000	          0.00000000	          0.00000000	
          0.00900000	        -10.59560100	         94.78230400	         10.60556500	          0.10666000	          0.00600000	         -0.19902400	          0.00000000	          0.30559000	          0.00000000	          0.00000000	          0.00000000	          0.00000000	          0.67336700	          0.00000000	         -0.31384100	          0.00000000	          0.00000000	          0.00000000	
          0.00950000	        -10.86679400	         96.30604800	         10.67378200	          0.10702700	          0.00600000	         -0.19905500	          0.00000000	          0.30297700	          0.00000000	          0.00000000	          0.00000000	          0.00000000	          0.67336700	          0.00000000	         -0.31384100	          0.00000000	          0.00000000	          0.00000000	
          0.01000000	        -11.14126200	         97.84171500	         10.74152300	          0.10739000	          0.00600000	         -0.19908500	          0.00000000	          0.30036200	          0.00000000	          0.00000000	          0.00000000	          0.00000000	          0.67336700	          0.00000000	         -0.31384100	          0.00000000	          0.00000000	          0.00000000	
          0.01050000	        -11.41902100	         99.38927200	         10.80876600	          0.10774800	          0.00600000	         -0.19911500	          0.00000000	          0.29774300	          0.00000000	          0.00000000	          0.00000000	          0.00000000	          0.67336700	          0.00000000	         -0.31384100	          0.00000000	          0.00000000	          0.00000000	
          0.01100000	        -11.70008600	        100.94868500	         10.87549400	          0.10810300	          0.00600000	         -0.19914300	          0.00000000	          0.29512000	          0.00000000	          0.00000000	          0.00000000	          0.00000000	          0.67336700	          0.00000000	         -0.31384100	          0.00000000	          0.00000000	          0.00000000	
          0.01150000	        -11.98447000	        102.51991900	         10.94168600	          0.10845400	          0.00600000	         -0.19917100	          0.00000000	          0.29249400	          0.00000000	          0.00000000	          0.00000000	          0.00000000	          0.67336700	          0.00000000	         -0.31384100	          0.00000000	          0.00000000	          0.00000000	
          0.01200000	        -12.27218900	        104.10293300	         11.00732200	          0.10880200	          0.00600000	         -0.19919800	          0.00000000	          0.28986200	          0.00000000	          0.00000000	          0.00000000	          0.00000000	          0.67336700	          0.00000000	         -0.31384100	          0.00000000	          0.00000000	          0.00000000	
          0.01250000	        -12.56325600	        105.69768900	         11.07238300	          0.10914600	          0.00600000	         -0.19922300	          0.00000000	          0.28722600	          0.00000000	          0.00000000	          0.00000000	          0.00000000	          0.67336700	          0.00000000	         -0.31384100	          0.00000000	          0.00000000	          0.00000000	
          0.01300000	        -12.85768500	        107.30414200	         11.13684800	          0.10948700	          0.00600000	         -0.19924800	          0.00000000	          0.28458600	          0.00000000	          0.00000000	          0.00000000	          0.00000000	          0.67336700	          0.00000000	         -0.31384100	          0.00000000	          0.00000000	          0.00000000	
          0.01350000	        -13.15548900	        108.92224600	         11.20069600	          0.10982500	          0.00600000	         -0.19927300	          0.00000000	          0.28193900	          0.00000000	          0.00000000	          0.00000000	          0.00000000	          0.67336700	          0.00000000	         -0.31384100	          0.00000000	          0.00000000	          0.00000000	
          0.01400000	        -13.45668100	        110.55195600	         11.26390900	          0.11015900	          0.00600000	         -0.19929600	          0.00000000	          0.27928700	          0.00000000	          0.00000000	          0.00000000	          0.00000000	          0.67336700	          0.00000000	         -0.31384100	          0.00000000	          0.00000000	          0.00000000	
